<svg width="992" height="2642" viewBox="0 0 992 2642" fill="none" xmlns="http://www.w3.org/2000/svg">
<g clip-path="url(#clip0_6827_40709)">
<rect y="-33.0669" width="1033.5" height="7163.07" fill="#080836"/>
</g>
<defs>
<clipPath id="clip0_6827_40709">
<rect width="992" height="2642" fill="white"/>
</clipPath>
</defs>
<g clip-path="url(#clip0_8776_21120)">
<rect width="7179" height="3617" transform="translate(-2311 -818)" fill="#080836"/>
<g opacity="0.5" filter="url(#filter0_f_8776_21120)">
<path d="M1355.84 361.201C1556.98 242.483 1439.65 28.2233 1355.84 -64.0669C1218.21 -64.0669 937.335 -36.1737 914.802 75.399C886.636 214.865 582.992 199.75 642.072 345.399C701.152 491.048 883.885 419.598 778.778 618.148C673.67 816.698 1265.84 832.499 1265.84 717.766C1265.84 603.033 1104.4 509.598 1355.84 361.201Z" fill="#FF505C"/>
</g>
<g opacity="0.5" filter="url(#filter1_f_8776_21120)">
<path d="M356.16 228.847L-107.467 557.374V-376.859L815.3 -396.8L534.133 -167.479L356.16 228.847Z" fill="#0078FF"/>
</g>
<g style="mix-blend-mode:color" opacity="0.5">
<g>
<path d="M2191.84 1322.09C1847.61 1418.82 2088.58 801.707 2252.09 481.061L2237.39 470.499L2964.65 -816.318C3134.17 -817.096 3514.27 -742.067 3678.54 -435.729C3883.87 -52.8074 2622.13 1201.18 2191.84 1322.09Z" fill="#14AAF6"/>
</g>
<path d="M2191.84 1322.09C1847.61 1418.82 2088.58 801.707 2252.09 481.061L2237.39 470.499L2964.65 -816.318C3134.17 -817.096 3514.27 -742.067 3678.54 -435.729C3883.87 -52.8074 2622.13 1201.18 2191.84 1322.09Z" stroke="black" stroke-width="2.06667"/>
</g>
<path fill-rule="evenodd" clip-rule="evenodd" d="M812.2 89.5476C812.2 190.148 852.163 286.629 923.298 357.764C994.434 428.9 1090.91 468.863 1191.51 468.863V572.196C1063.51 572.196 940.745 521.346 850.231 430.832C759.717 340.318 708.866 217.554 708.866 89.5476H812.2Z" fill="url(#paint0_linear_8776_21120)"/>
<path fill-rule="evenodd" clip-rule="evenodd" d="M1021.16 -24.6611C1040.22 -70.6818 1050.03 -120.006 1050.03 -169.819H1153.36C1153.36 -106.436 1140.88 -43.6748 1116.62 14.8828C1092.37 73.4405 1056.82 126.647 1012 171.465C967.181 216.283 913.974 251.835 855.417 276.09C796.859 300.346 734.097 312.83 670.715 312.83V209.497C720.527 209.497 769.852 199.685 815.873 180.623C861.893 161.561 903.709 133.62 938.931 98.3977C974.154 63.175 1002.09 21.3596 1021.16 -24.6611Z" fill="url(#paint1_linear_8776_21120)"/>
<path d="M723.09 205.863C754.893 201.429 786.075 192.965 815.873 180.623C818.125 179.69 820.367 178.736 822.598 177.761C830.657 211.46 843.293 243.88 860.128 274.11C858.561 274.778 856.991 275.438 855.417 276.09C824.421 288.929 792.247 298.47 759.427 304.607C743.771 273.149 731.577 240.037 723.09 205.863Z" fill="url(#paint2_linear_8776_21120)"/>
<path fill-rule="evenodd" clip-rule="evenodd" d="M316.045 305.949C266.232 305.949 216.908 315.76 170.887 334.822C124.866 353.885 83.0506 381.825 47.8279 417.048C12.6051 452.27 -15.3352 494.086 -34.3976 540.107C-53.4601 586.127 -63.2714 635.452 -63.2714 685.264H-166.605C-166.605 621.882 -154.121 559.12 -129.865 500.562C-105.61 442.005 -70.058 388.798 -25.2398 343.98C19.5784 299.162 72.7854 263.61 131.343 239.355C189.901 215.1 252.663 202.616 316.045 202.616L316.045 305.949Z" fill="url(#paint3_linear_8776_21120)"/>
<path fill-rule="evenodd" clip-rule="evenodd" d="M-141.165 84.8158C-90.6884 84.8156 -40.726 94.6744 5.86154 113.808C52.4474 132.94 94.7195 160.96 130.287 196.225C165.852 231.488 194.017 273.304 213.216 319.262C232.415 365.217 242.284 414.442 242.284 464.131H345.618C345.618 400.749 333.027 337.987 308.563 279.429C284.1 220.872 248.244 167.665 203.042 122.847C157.84 78.0285 104.177 42.4769 45.1182 18.2215C-13.941 -6.03376 -77.2404 -18.5177 -141.166 -18.5176L-141.165 84.8158Z" fill="url(#paint4_linear_8776_21120)"/>
<path d="M269.427 204.872C231.997 208.504 195.1 216.501 159.493 228.711C181.526 256.246 199.619 286.715 213.216 319.262C213.327 319.528 213.438 319.793 213.548 320.059C246.841 310.716 281.324 305.949 316.045 305.949L316.045 298.468C313.689 292.076 311.195 285.728 308.563 279.429C297.703 253.434 284.598 228.493 269.427 204.872Z" fill="url(#paint5_linear_8776_21120)"/>
<g style="mix-blend-mode:soft-light" opacity="0.2">
<circle cx="811.505" cy="811.505" r="810.428" transform="matrix(-1 0 0 1 2245.57 38.2554)" stroke="#150E1F" stroke-width="2.15484"/>
<path d="M-2219.43 1998.25H-378.068C-235.638 1998.25 -120.175 1882.78 -120.175 1740.35V399.307C-120.175 57.473 156.936 -219.638 498.77 -219.638C840.604 -219.638 1117.71 57.473 1117.71 399.307V911.655C1117.71 1054.09 1233.18 1169.55 1375.61 1169.55H4803.87" stroke="#150E1F" stroke-width="3.43858"/>
<path d="M-2279.6 2084.21H-378.068C-188.16 2084.21 -34.2098 1930.26 -34.2098 1740.35V399.306C-34.2098 104.95 204.414 -133.674 498.77 -133.674C793.127 -133.674 1031.75 104.95 1031.75 399.306V911.655C1031.75 1101.56 1185.7 1255.51 1375.61 1255.51H4800.44" stroke="#150E1F" stroke-width="3.43858"/>
<path d="M-2269.29 2170.18H-378.068C-140.684 2170.18 51.7546 1977.74 51.7546 1740.35V399.307C51.7546 152.427 251.89 -47.709 498.77 -47.709C745.65 -47.709 945.786 152.427 945.786 399.307V911.655C945.786 1149.04 1138.22 1341.48 1375.61 1341.48H4867.49" stroke="#150E1F" stroke-width="3.43858"/>
<path d="M-2310.55 2256.14H-378.068C-93.2069 2256.14 137.719 2025.22 137.719 1740.35V399.306C137.719 199.903 299.367 38.2554 498.77 38.2554C698.173 38.2554 859.821 199.903 859.821 399.306V911.655C859.821 1196.52 1090.75 1427.44 1375.61 1427.44H4812.47" stroke="#150E1F" stroke-width="3.43858"/>
<path d="M-2272.73 2342.1H-360.875C-38.0321 2342.1 223.684 2080.39 223.684 1757.55V399.306C223.684 247.38 346.844 124.22 498.77 124.22C650.696 124.22 773.857 247.38 773.857 399.306V911.655C773.857 1243.99 1043.27 1513.41 1375.61 1513.41H4833.1" stroke="#150E1F" stroke-width="3.43858"/>
</g>
<g clip-path="url(#clip1_8776_21120)">
<rect width="4357" height="2377" transform="translate(-1816 1408)" fill="#080836"/>
<g opacity="0.5">
<g opacity="0.3" filter="url(#filter3_f_8776_21120)">
<path d="M73.9115 2239.19C-33.3303 2175.9 29.2274 2061.67 73.9115 2012.46C147.285 2012.46 297.036 2027.33 309.049 2086.82C324.066 2161.18 485.954 2153.12 454.455 2230.77C422.957 2308.42 325.532 2270.33 381.571 2376.19C437.609 2482.04 121.892 2490.47 121.892 2429.3C121.892 2368.13 207.964 2318.31 73.9115 2239.19Z" fill="#FF505C"/>
</g>
<g opacity="0.3" filter="url(#filter4_f_8776_21120)">
<path d="M1213.4 2239.19C1106.16 2175.9 1168.72 2061.67 1213.4 2012.46C1286.78 2012.46 1436.53 2027.33 1448.54 2086.82C1463.56 2161.18 1625.45 2153.12 1593.95 2230.77C1562.45 2308.42 1465.02 2270.33 1521.06 2376.19C1577.1 2482.04 1261.38 2490.47 1261.38 2429.3C1261.38 2368.13 1347.46 2318.31 1213.4 2239.19Z" fill="#FF505C"/>
</g>
<g opacity="0.3" filter="url(#filter5_f_8776_21120)">
<path d="M754.731 2374.13L1016.29 2559.47V2032.41L495.7 2021.16L654.325 2150.53L754.731 2374.13Z" fill="#0078FF"/>
</g>
<g opacity="0.2" filter="url(#filter6_f_8776_21120)">
<path d="M-400.627 2374.13L-139.065 2559.47V2032.41L-659.659 2021.16L-501.034 2150.53L-400.627 2374.13Z" fill="#0078FF"/>
</g>
</g>
<path opacity="0.3" d="M432.028 3709.25C335.605 3709.25 240.126 3690.26 151.043 3653.36C61.9592 3616.46 -18.9839 3562.37 -87.1653 3494.19C-155.347 3426.01 -209.431 3345.07 -246.331 3255.99C-283.23 3166.9 -302.222 3071.42 -302.222 2975C-302.222 2878.58 -283.23 2783.1 -246.331 2694.01C-209.431 2604.93 -155.347 2523.99 -87.1652 2455.81C-18.9838 2387.63 61.9593 2333.54 151.043 2296.64C240.126 2259.74 335.605 2240.75 432.028 2240.75C528.451 2240.75 623.93 2259.74 713.013 2296.64C802.097 2333.54 883.04 2387.63 951.221 2455.81C1019.4 2523.99 1073.49 2604.93 1110.39 2694.01C1147.29 2783.1 1166.28 2878.58 1166.28 2975C1166.28 3071.42 1147.29 3166.9 1110.39 3255.99C1073.49 3345.07 1019.4 3426.01 951.221 3494.19C883.039 3562.37 802.096 3616.46 713.013 3653.36C623.93 3690.26 528.451 3709.25 432.028 3709.25L432.028 3709.25Z" stroke="url(#paint6_linear_8776_21120)" stroke-width="150"/>
<path opacity="0.3" d="M1731.4 3632.54C1634.98 3632.54 1539.5 3613.55 1450.42 3576.65C1361.34 3539.75 1280.39 3485.66 1212.21 3417.48C1144.03 3349.3 1089.95 3268.36 1053.05 3179.27C1016.15 3090.19 997.155 2994.71 997.155 2898.29C997.155 2801.86 1016.15 2706.39 1053.05 2617.3C1089.95 2528.22 1144.03 2447.28 1212.21 2379.09C1280.39 2310.91 1361.34 2256.83 1450.42 2219.93C1539.5 2183.03 1634.98 2164.04 1731.4 2164.04C1827.83 2164.04 1923.31 2183.03 2012.39 2219.93C2101.47 2256.83 2182.42 2310.91 2250.6 2379.09C2318.78 2447.28 2372.86 2528.22 2409.76 2617.3C2446.66 2706.39 2465.65 2801.86 2465.65 2898.29C2465.65 2994.71 2446.66 3090.19 2409.76 3179.27C2372.86 3268.36 2318.78 3349.3 2250.6 3417.48C2182.42 3485.66 2101.47 3539.75 2012.39 3576.65C1923.31 3613.55 1827.83 3632.54 1731.4 3632.54L1731.4 3632.54Z" stroke="url(#paint7_linear_8776_21120)" stroke-width="150"/>
<path opacity="0.8" fill-rule="evenodd" clip-rule="evenodd" d="M913.694 2069.78C886.226 2069.78 859.028 2075.19 833.652 2085.7C808.276 2096.21 785.218 2111.62 765.796 2131.04C746.374 2150.46 730.967 2173.52 720.456 2198.89C709.945 2224.27 704.535 2251.47 704.535 2278.94C704.535 2306.4 709.945 2333.6 720.456 2358.98C730.967 2384.35 746.374 2407.41 765.796 2426.83C785.218 2446.26 808.276 2461.66 833.652 2472.17C859.028 2482.68 886.226 2488.1 913.694 2488.1C941.161 2488.1 968.359 2482.68 993.735 2472.17C1019.11 2461.66 1042.17 2446.26 1061.59 2426.83C1081.01 2407.41 1096.42 2384.35 1106.93 2358.98C1117.44 2333.6 1122.85 2306.4 1122.85 2278.94C1122.85 2251.47 1117.44 2224.27 1106.93 2198.89C1096.42 2173.52 1081.01 2150.46 1061.59 2131.04C1042.17 2111.62 1019.11 2096.21 993.735 2085.7C968.359 2075.19 941.161 2069.78 913.694 2069.78ZM799.086 2002.25C835.421 1987.2 874.365 1979.45 913.694 1979.45C953.022 1979.45 991.966 1987.2 1028.3 2002.25C1064.64 2017.3 1097.65 2039.36 1125.46 2067.17C1153.27 2094.98 1175.33 2127.99 1190.38 2164.33C1205.43 2200.66 1213.18 2239.61 1213.18 2278.94C1213.18 2318.26 1205.43 2357.21 1190.38 2393.54C1175.33 2429.88 1153.27 2462.89 1125.46 2490.7C1097.65 2518.51 1064.64 2540.57 1028.3 2555.62C991.966 2570.67 953.022 2578.42 913.694 2578.42C874.365 2578.42 835.421 2570.67 799.086 2555.62C762.751 2540.57 729.736 2518.51 701.927 2490.7C674.117 2462.89 652.057 2429.88 637.007 2393.54C621.957 2357.21 614.21 2318.26 614.21 2278.94C614.21 2239.61 621.957 2200.66 637.007 2164.33C652.057 2127.99 674.117 2094.98 701.927 2067.17C729.736 2039.36 762.751 2017.3 799.086 2002.25Z" fill="url(#paint8_linear_8776_21120)"/>
<path opacity="0.8" fill-rule="evenodd" clip-rule="evenodd" d="M486.065 2131.31C399.179 2131.31 313.144 2148.43 232.871 2181.68C152.599 2214.93 79.6617 2263.66 18.224 2325.1C-43.2138 2386.54 -91.9489 2459.47 -125.199 2539.75C-158.449 2620.02 -175.562 2706.05 -175.562 2792.94C-175.562 2879.83 -158.449 2965.86 -125.199 3046.13C-91.949 3126.41 -43.2139 3199.34 18.2238 3260.78C79.6616 3322.22 152.599 3370.95 232.871 3404.2C313.143 3437.45 399.179 3454.57 486.065 3454.57C572.951 3454.57 658.986 3437.45 739.258 3404.2C819.531 3370.95 892.468 3322.22 953.906 3260.78C1015.34 3199.34 1064.08 3126.41 1097.33 3046.13C1130.58 2965.86 1147.69 2879.83 1147.69 2792.94C1147.69 2706.05 1130.58 2620.02 1097.33 2539.75C1064.08 2459.47 1015.34 2386.54 953.906 2325.1C892.468 2263.66 819.531 2214.93 739.259 2181.68C658.986 2148.43 572.951 2131.31 486.065 2131.31ZM175.262 2042.6C273.799 2001.78 379.41 1980.77 486.065 1980.77C592.72 1980.77 698.331 2001.78 796.868 2042.6C895.405 2083.41 984.938 2143.23 1060.35 2218.65C1135.77 2294.07 1195.59 2383.6 1236.41 2482.14C1277.23 2580.67 1298.23 2686.29 1298.23 2792.94C1298.23 2899.6 1277.23 3005.21 1236.41 3103.74C1195.59 3202.28 1135.77 3291.81 1060.35 3367.23C984.937 3442.65 895.405 3502.47 796.868 3543.29C698.331 3584.1 592.72 3605.11 486.065 3605.11C379.409 3605.11 273.798 3584.1 175.262 3543.29C76.7249 3502.47 -12.8079 3442.65 -88.2246 3367.23C-163.641 3291.81 -223.465 3202.28 -264.28 3103.74C-305.096 3005.21 -326.103 2899.6 -326.103 2792.94C-326.103 2686.28 -305.096 2580.67 -264.28 2482.14C-223.465 2383.6 -163.641 2294.07 -88.2245 2218.65C-12.8077 2143.23 76.725 2083.41 175.262 2042.6Z" fill="url(#paint9_linear_8776_21120)"/>
<path fill-rule="evenodd" clip-rule="evenodd" d="M1187.64 1933.35C1118.36 1933.35 1051.91 1960.88 1002.91 2009.87C953.921 2058.86 926.396 2125.31 926.396 2194.6H836.072C836.072 2101.36 873.112 2011.93 939.045 1946C1004.98 1880.07 1094.4 1843.03 1187.64 1843.03L1187.64 1933.35Z" fill="url(#paint10_linear_8776_21120)"/>
<path d="M1016.15 1997.52C983.343 1985.58 948.671 1979.45 913.694 1979.45C912.317 1979.45 910.941 1979.46 909.565 1979.48C886.474 2009.33 868.436 2042.58 856.009 2077.89C874.728 2072.52 894.143 2069.78 913.694 2069.78C927.893 2069.78 942.02 2071.22 955.861 2074.07C968.063 2050.61 983.866 2028.92 1002.91 2009.87C1007.2 2005.59 1011.61 2001.47 1016.15 1997.52Z" fill="url(#paint11_linear_8776_21120)"/>
<path opacity="0.2" fill-rule="evenodd" clip-rule="evenodd" d="M-82.3015 1953.24C-113.998 1940.11 -147.969 1933.35 -182.277 1933.35V1843.03C-136.108 1843.03 -90.3906 1852.12 -47.7358 1869.79C-5.08105 1887.46 33.6761 1913.35 66.3226 1946C98.9691 1978.65 124.866 2017.4 142.534 2060.06C160.202 2102.71 169.296 2148.43 169.296 2194.6L78.9713 2194.6C78.9713 2160.29 72.214 2126.32 59.085 2094.62C45.9561 2062.93 26.7126 2034.13 2.45355 2009.87C-21.8056 1985.61 -50.6054 1966.37 -82.3015 1953.24Z" fill="url(#paint12_linear_8776_21120)"/>
<path opacity="0.2" fill-rule="evenodd" clip-rule="evenodd" d="M207.942 2116.75C158.948 2067.76 92.4987 2040.24 23.2114 2040.24V1949.91C116.454 1949.91 205.878 1986.95 271.811 2052.88C337.743 2118.82 374.784 2208.24 374.784 2301.48L284.46 2301.48C284.46 2232.2 256.935 2165.75 207.942 2116.75Z" fill="url(#paint13_linear_8776_21120)"/>
</g>
</g>
<defs>
<filter id="filter0_f_8776_21120" x="317.952" y="-380.581" width="1465.46" height="1486.56" filterUnits="userSpaceOnUse" color-interpolation-filters="sRGB">
<feFlood flood-opacity="0" result="BackgroundImageFix"/>
<feBlend mode="normal" in="SourceGraphic" in2="BackgroundImageFix" result="shape"/>
<feGaussianBlur stdDeviation="158.257" result="effect1_foregroundBlur_8776_21120"/>
</filter>
<filter id="filter1_f_8776_21120" x="-406.581" y="-695.914" width="1520.99" height="1552.4" filterUnits="userSpaceOnUse" color-interpolation-filters="sRGB">
<feFlood flood-opacity="0" result="BackgroundImageFix"/>
<feBlend mode="normal" in="SourceGraphic" in2="BackgroundImageFix" result="shape"/>
<feGaussianBlur stdDeviation="149.557" result="effect1_foregroundBlur_8776_21120"/>
</filter>
<filter id="filter3_f_8776_21120" x="-154.052" y="1843.71" width="781.312" height="792.562" filterUnits="userSpaceOnUse" color-interpolation-filters="sRGB">
<feFlood flood-opacity="0" result="BackgroundImageFix"/>
<feBlend mode="normal" in="SourceGraphic" in2="BackgroundImageFix" result="shape"/>
<feGaussianBlur stdDeviation="84.375" result="effect1_foregroundBlur_8776_21120"/>
</filter>
<filter id="filter4_f_8776_21120" x="985.44" y="1843.71" width="781.312" height="792.562" filterUnits="userSpaceOnUse" color-interpolation-filters="sRGB">
<feFlood flood-opacity="0" result="BackgroundImageFix"/>
<feBlend mode="normal" in="SourceGraphic" in2="BackgroundImageFix" result="shape"/>
<feGaussianBlur stdDeviation="84.375" result="effect1_foregroundBlur_8776_21120"/>
</filter>
<filter id="filter5_f_8776_21120" x="326.95" y="1852.41" width="858.094" height="875.812" filterUnits="userSpaceOnUse" color-interpolation-filters="sRGB">
<feFlood flood-opacity="0" result="BackgroundImageFix"/>
<feBlend mode="normal" in="SourceGraphic" in2="BackgroundImageFix" result="shape"/>
<feGaussianBlur stdDeviation="84.375" result="effect1_foregroundBlur_8776_21120"/>
</filter>
<filter id="filter6_f_8776_21120" x="-828.409" y="1852.41" width="858.094" height="875.812" filterUnits="userSpaceOnUse" color-interpolation-filters="sRGB">
<feFlood flood-opacity="0" result="BackgroundImageFix"/>
<feBlend mode="normal" in="SourceGraphic" in2="BackgroundImageFix" result="shape"/>
<feGaussianBlur stdDeviation="84.375" result="effect1_foregroundBlur_8776_21120"/>
</filter>
<linearGradient id="paint0_linear_8776_21120" x1="1385.22" y1="634.073" x2="1417.09" y2="-95.7965" gradientUnits="userSpaceOnUse">
<stop stop-color="#891D4B"/>
<stop offset="1" stop-color="#F45E79" stop-opacity="0.18"/>
</linearGradient>
<linearGradient id="paint1_linear_8776_21120" x1="864.424" y1="374.707" x2="903.691" y2="-293.343" gradientUnits="userSpaceOnUse">
<stop stop-color="#97446E"/>
<stop offset="1" stop-color="#9F3A5A" stop-opacity="0.07"/>
</linearGradient>
<linearGradient id="paint2_linear_8776_21120" x1="885.839" y1="534.041" x2="924.177" y2="-4.51522" gradientUnits="userSpaceOnUse">
<stop stop-color="#F45C79"/>
<stop offset="1" stop-color="#F45E79" stop-opacity="0.18"/>
</linearGradient>
<linearGradient id="paint3_linear_8776_21120" x1="398.67" y1="182.466" x2="-91.6467" y2="695.516" gradientUnits="userSpaceOnUse">
<stop stop-color="#FF93B9" stop-opacity="0.53"/>
<stop offset="1" stop-color="#80DCDA" stop-opacity="0"/>
</linearGradient>
<linearGradient id="paint4_linear_8776_21120" x1="-153.108" y1="-116.684" x2="285.325" y2="466.479" gradientUnits="userSpaceOnUse">
<stop stop-color="#0960CC"/>
<stop offset="1" stop-color="#0960D0" stop-opacity="0"/>
</linearGradient>
<linearGradient id="paint5_linear_8776_21120" x1="137.916" y1="119.971" x2="143.795" y2="726.031" gradientUnits="userSpaceOnUse">
<stop stop-color="#9B6795"/>
<stop offset="1" stop-color="#765986" stop-opacity="0"/>
</linearGradient>
<linearGradient id="paint6_linear_8776_21120" x1="432.028" y1="2087.71" x2="432.028" y2="2507" gradientUnits="userSpaceOnUse">
<stop stop-color="#0E0932"/>
<stop offset="1" stop-color="#080836"/>
</linearGradient>
<linearGradient id="paint7_linear_8776_21120" x1="1731.4" y1="2011" x2="1731.4" y2="2430.29" gradientUnits="userSpaceOnUse">
<stop stop-color="#0E0932"/>
<stop offset="1" stop-color="#080836"/>
</linearGradient>
<linearGradient id="paint8_linear_8776_21120" x1="913.694" y1="1979.45" x2="913.694" y2="2578.42" gradientUnits="userSpaceOnUse">
<stop stop-color="#141D70"/>
<stop offset="1" stop-color="#080836" stop-opacity="0"/>
</linearGradient>
<linearGradient id="paint9_linear_8776_21120" x1="486.065" y1="1733.13" x2="486.065" y2="2323.25" gradientUnits="userSpaceOnUse">
<stop stop-color="#100830"/>
<stop offset="1" stop-color="#080836" stop-opacity="0.23"/>
</linearGradient>
<linearGradient id="paint10_linear_8776_21120" x1="933.26" y1="2285.83" x2="1133.74" y2="1647.5" gradientUnits="userSpaceOnUse">
<stop stop-color="#10185F"/>
<stop offset="1" stop-color="#0B255D" stop-opacity="0"/>
</linearGradient>
<linearGradient id="paint11_linear_8776_21120" x1="856.009" y1="2250.96" x2="1227.62" y2="1620.31" gradientUnits="userSpaceOnUse">
<stop stop-color="#0B2C7E"/>
<stop offset="1" stop-color="#0B255D" stop-opacity="0"/>
</linearGradient>
<linearGradient id="paint12_linear_8776_21120" x1="310.398" y1="2239.67" x2="333.612" y2="1708.02" gradientUnits="userSpaceOnUse">
<stop stop-color="#891D4B"/>
<stop offset="1" stop-color="#F45E79" stop-opacity="0.18"/>
</linearGradient>
<linearGradient id="paint13_linear_8776_21120" x1="231.715" y1="2432.84" x2="212.333" y2="1927.44" gradientUnits="userSpaceOnUse">
<stop stop-color="#891D4B"/>
<stop offset="1" stop-color="#F45E79" stop-opacity="0.18"/>
</linearGradient>
<clipPath id="clip0_8776_21120">
<rect width="992" height="2642" fill="white"/>
</clipPath>
<clipPath id="clip1_8776_21120">
<rect width="4357" height="2377" fill="white" transform="translate(-1816 1408)"/>
</clipPath>
</defs>
</svg>
